HIERARCHY
ROOT Hips
{
	OFFSET 0.000000 121.760803 0.000000
	CHANNELS 6 Xposition Yposition Zposition Xrotation Yrotation Zrotation 
	JOINT Spine
	{
		OFFSET 0.072000 7.257294 -0.789700
		CHANNELS 3 Xrotation Yrotation Zrotation
		JOINT Spine1
		{
			OFFSET 0.000000 12.508769 -0.658067
			CHANNELS 3 Xrotation Yrotation Zrotation
			JOINT Spine1_split
			{
				OFFSET 0.000000 12.508769 -0.658067
				CHANNELS 3 Xrotation Yrotation Zrotation
				JOINT Spine2
				{
					OFFSET 0.000000 12.508769 -0.658067
					CHANNELS 3 Xrotation Yrotation Zrotation
					JOINT Neck
					{
						OFFSET 0.000000 14.033295 7.520400
						CHANNELS 3 Xrotation Yrotation Zrotation
						JOINT Head
						{
							OFFSET 0.000000 8.198502 5.703100
							CHANNELS 3 Xrotation Yrotation Zrotation
							JOINT HeadTop_End
							{
								OFFSET 0.000000 17.760803 13.332701
								CHANNELS 3 Xrotation Yrotation Zrotation
								End Site
								{
									OFFSET 0.000000 0.000000 0.000000
								}
							}
						}
					}
					JOINT LeftShoulder
					{
						OFFSET 6.292450 5.785301 -0.669000
						CHANNELS 3 Xrotation Yrotation Zrotation
						JOINT LeftShoulder_split
						{
							OFFSET 6.292450 5.785301 -0.669000
							CHANNELS 3 Xrotation Yrotation Zrotation
							JOINT LeftArm
							{
								OFFSET 13.907140 -6.093903 1.965100
								CHANNELS 3 Xrotation Yrotation Zrotation
								JOINT LeftForeArm
								{
									OFFSET 34.140198 0.000000 0.000000
									CHANNELS 3 Xrotation Yrotation Zrotation
									JOINT LeftHand
									{
										OFFSET 40.960209 0.000000 0.000000
										CHANNELS 3 Xrotation Yrotation Zrotation
										JOINT LeftHandThumb1
										{
											OFFSET 10.006996 -7.170425 9.573125
											CHANNELS 3 Xrotation Yrotation Zrotation
											JOINT LeftHandThumb2
											{
												OFFSET 1.835007 -1.059448 1.059443
												CHANNELS 3 Xrotation Yrotation Zrotation
												JOINT LeftHandThumb3
												{
													OFFSET 2.112267 -1.219513 1.219518
													CHANNELS 3 Xrotation Yrotation Zrotation
													JOINT LeftHandThumb4
													{
														OFFSET 4.843811 -2.796570 2.796576
														CHANNELS 3 Xrotation Yrotation Zrotation
														End Site
														{
															OFFSET 0.000000 0.000000 0.000000
														}
													}
												}
											}
										}
										JOINT LeftHandIndex1
										{
											OFFSET 18.389847 -0.922348 4.596882
											CHANNELS 3 Xrotation Yrotation Zrotation
											JOINT LeftHandIndex2
											{
												OFFSET 4.711273 0.000000 0.000000
												CHANNELS 3 Xrotation Yrotation Zrotation
												JOINT LeftHandIndex3
												{
													OFFSET 2.886131 0.000000 0.000000
													CHANNELS 3 Xrotation Yrotation Zrotation
													JOINT LeftHandIndex4
													{
														OFFSET 6.145912 0.000000 0.000000
														CHANNELS 3 Xrotation Yrotation Zrotation
														End Site
														{
															OFFSET 0.000000 0.000000 0.000000
														}
													}
												}
											}
										}
										JOINT LeftHandMiddle1
										{
											OFFSET 18.013008 0.000000 0.000000
											CHANNELS 3 Xrotation Yrotation Zrotation
											JOINT LeftHandMiddle2
											{
												OFFSET 4.946693 0.000000 0.000000
												CHANNELS 3 Xrotation Yrotation Zrotation
												JOINT LeftHandMiddle3
												{
													OFFSET 3.342232 0.000000 0.000000
													CHANNELS 3 Xrotation Yrotation Zrotation
													JOINT LeftHandMiddle4
													{
														OFFSET 4.461754 0.000000 0.000000
														CHANNELS 3 Xrotation Yrotation Zrotation
														End Site
														{
															OFFSET 0.000000 0.000000 0.000000
														}
													}
												}
											}
										}
										JOINT LeftHandRing1
										{
											OFFSET 15.849892 -0.102921 -4.126150
											CHANNELS 3 Xrotation Yrotation Zrotation
											JOINT LeftHandRing2
											{
												OFFSET 3.527054 0.000000 0.000000
												CHANNELS 3 Xrotation Yrotation Zrotation
												JOINT LeftHandRing3
												{
													OFFSET 2.961098 0.000000 0.000000
													CHANNELS 3 Xrotation Yrotation Zrotation
													JOINT LeftHandRing4
													{
														OFFSET 4.927200 0.000000 0.000000
														CHANNELS 3 Xrotation Yrotation Zrotation
														End Site
														{
															OFFSET 0.000000 0.000000 0.000000
														}
													}
												}
											}
										}
										JOINT LeftHandPinky1
										{
											OFFSET 12.791824 -0.832031 -6.799156
											CHANNELS 3 Xrotation Yrotation Zrotation
											JOINT LeftHandPinky2
											{
												OFFSET 3.327133 0.000000 0.000000
												CHANNELS 3 Xrotation Yrotation Zrotation
												JOINT LeftHandPinky3
												{
													OFFSET 3.014900 0.000000 0.000000
													CHANNELS 3 Xrotation Yrotation Zrotation
													JOINT LeftHandPinky4
													{
														OFFSET 5.847786 0.000000 0.000000
														CHANNELS 3 Xrotation Yrotation Zrotation
														End Site
														{
															OFFSET 0.000000 0.000000 0.000000
														}
													}
												}
											}
										}
									}
								}
							}
						}
					}
					JOINT RightShoulder
					{
						OFFSET -6.292450 5.785301 -0.669000
						CHANNELS 3 Xrotation Yrotation Zrotation
						JOINT RightShoulder_split
						{
							OFFSET -6.292450 5.785301 -0.669000
							CHANNELS 3 Xrotation Yrotation Zrotation
							JOINT RightArm
							{
								OFFSET -13.907140 -6.093903 1.965100
								CHANNELS 3 Xrotation Yrotation Zrotation
								JOINT RightForeArm
								{
									OFFSET -34.140198 0.000000 0.000000
									CHANNELS 3 Xrotation Yrotation Zrotation
									JOINT RightHand
									{
										OFFSET -40.960209 0.000000 0.000000
										CHANNELS 3 Xrotation Yrotation Zrotation
										JOINT RightHandThumb1
										{
											OFFSET -10.007050 -7.170456 9.573117
											CHANNELS 3 Xrotation Yrotation Zrotation
											JOINT RightHandThumb2
											{
												OFFSET -1.835007 -1.059448 1.059443
												CHANNELS 3 Xrotation Yrotation Zrotation
												JOINT RightHandThumb3
												{
													OFFSET -2.112267 -1.219513 1.219518
													CHANNELS 3 Xrotation Yrotation Zrotation
													JOINT RightHandThumb4
													{
														OFFSET -4.843834 -2.796585 2.796590
														CHANNELS 3 Xrotation Yrotation Zrotation
														End Site
														{
															OFFSET 0.000000 0.000000 0.000000
														}
													}
												}
											}
										}
										JOINT RightHandIndex1
										{
											OFFSET -18.389870 -0.922424 4.596786
											CHANNELS 3 Xrotation Yrotation Zrotation
											JOINT RightHandIndex2
											{
												OFFSET -4.711273 0.000000 0.000000
												CHANNELS 3 Xrotation Yrotation Zrotation
												JOINT RightHandIndex3
												{
													OFFSET -2.886131 0.000000 0.000000
													CHANNELS 3 Xrotation Yrotation Zrotation
													JOINT RightHandIndex4
													{
														OFFSET -6.145920 0.000000 0.000000
														CHANNELS 3 Xrotation Yrotation Zrotation
														End Site
														{
															OFFSET 0.000000 0.000000 0.000000
														}
													}
												}
											}
										}
										JOINT RightHandMiddle1
										{
											OFFSET -18.013008 0.000000 0.000000
											CHANNELS 3 Xrotation Yrotation Zrotation
											JOINT RightHandMiddle2
											{
												OFFSET -4.946693 0.000000 0.000000
												CHANNELS 3 Xrotation Yrotation Zrotation
												JOINT RightHandMiddle3
												{
													OFFSET -3.342232 0.000000 0.000000
													CHANNELS 3 Xrotation Yrotation Zrotation
													JOINT RightHandMiddle4
													{
														OFFSET -4.461754 0.000000 0.000000
														CHANNELS 3 Xrotation Yrotation Zrotation
														End Site
														{
															OFFSET 0.000000 0.000000 0.000000
														}
													}
												}
											}
										}
										JOINT RightHandRing1
										{
											OFFSET -15.849876 -0.102936 -4.126237
											CHANNELS 3 Xrotation Yrotation Zrotation
											JOINT RightHandRing2
											{
												OFFSET -3.527054 0.000000 0.000000
												CHANNELS 3 Xrotation Yrotation Zrotation
												JOINT RightHandRing3
												{
													OFFSET -2.961098 0.000000 0.000000
													CHANNELS 3 Xrotation Yrotation Zrotation
													JOINT RightHandRing4
													{
														OFFSET -4.927200 0.000000 0.000000
														CHANNELS 3 Xrotation Yrotation Zrotation
														End Site
														{
															OFFSET 0.000000 0.000000 0.000000
														}
													}
												}
											}
										}
										JOINT RightHandPinky1
										{
											OFFSET -12.791786 -0.832077 -6.799222
											CHANNELS 3 Xrotation Yrotation Zrotation
											JOINT RightHandPinky2
											{
												OFFSET -3.327133 0.000000 0.000000
												CHANNELS 3 Xrotation Yrotation Zrotation
												JOINT RightHandPinky3
												{
													OFFSET -3.014900 0.000000 0.000000
													CHANNELS 3 Xrotation Yrotation Zrotation
													JOINT RightHandPinky4
													{
														OFFSET -5.847786 0.000000 0.000000
														CHANNELS 3 Xrotation Yrotation Zrotation
														End Site
														{
															OFFSET 0.000000 0.000000 0.000000
														}
													}
												}
											}
										}
									}
								}
							}
						}
					}
				}
			}
		}
	}
	JOINT LeftUpLeg
	{
		OFFSET 13.026900 -6.336304 -1.092800
		CHANNELS 3 Xrotation Yrotation Zrotation
		JOINT LeftLeg
		{
			OFFSET 0.524474 -46.096886 9.782700
			CHANNELS 3 Xrotation Yrotation Zrotation
			JOINT LeftFoot
			{
				OFFSET -0.524474 -53.427422 -12.948200
				CHANNELS 3 Xrotation Yrotation Zrotation
				JOINT LeftToeBase
				{
					OFFSET 0.192200 -14.009700 16.364100
					CHANNELS 3 Xrotation Yrotation Zrotation
					JOINT LeftToe_End
					{
						OFFSET -1.784700 -0.561700 9.474800
						CHANNELS 3 Xrotation Yrotation Zrotation
						End Site
						{
							OFFSET 0.000000 0.000000 0.000000
						}
					}
				}
			}
		}
	}
	JOINT RightUpLeg
	{
		OFFSET -12.883000 -6.336304 -1.092800
		CHANNELS 3 Xrotation Yrotation Zrotation
		JOINT RightLeg
		{
			OFFSET -0.524587 -46.096825 9.782800
			CHANNELS 3 Xrotation Yrotation Zrotation
			JOINT RightFoot
			{
				OFFSET 0.524587 -53.427383 -12.948300
				CHANNELS 3 Xrotation Yrotation Zrotation
				JOINT RightToeBase
				{
					OFFSET -0.192200 -14.009700 16.364100
					CHANNELS 3 Xrotation Yrotation Zrotation
					JOINT RightToe_End
					{
						OFFSET 1.784700 -0.561700 9.474800
						CHANNELS 3 Xrotation Yrotation Zrotation
						End Site
						{
							OFFSET 0.000000 0.000000 0.000000
						}
					}
				}
			}
		}
	}
}
MOTION
Frames: 4
Frame Time: 0.016667
-0.500549 111.675117 0.357898 1.363718 -27.090137 1.320091 3.654601 -1.993796 0.527192 1.363086 -0.820709 0.173835 0.000000 0.000000 0.000000 1.366612 -0.813807 0.178820 -1.889905 4.550428 2.461103 17.045041 24.869853 -12.698042 -0.000001 0.000000 -0.000000 -0.311617 3.473788 4.919201 0.000000 0.000000 0.000000 -51.541793 -1.692567 -52.291904 0.001236 -84.594482 0.001193 -12.268089 -17.441600 -7.415587 27.590962 19.106278 -21.055342 27.859560 42.153018 14.703688 8.091820 17.848661 9.739460 0.000002 -0.000000 0.000000 6.438747 6.867038 -86.304611 7.312880 6.867694 -93.605291 2.157741 5.009662 -46.582952 -0.000001 0.000000 0.000000 6.436812 6.866912 -86.288403 7.314807 6.867585 -93.621499 2.157740 5.009661 -46.582935 -0.000000 -0.000001 -0.000000 6.438748 6.867028 -86.304617 7.312868 6.867705 -93.605291 2.157738 5.009661 -46.582962 -0.000001 -0.000002 0.000001 10.514970 7.128939 -86.291039 7.312030 2.781438 -93.595291 2.157740 5.009663 -46.582962 -0.000001 0.000001 0.000000 -1.129696 -10.661992 8.143390 0.000000 0.000000 0.000000 -61.066946 65.570438 77.632531 0.000096 81.745890 -0.000061 -15.442860 16.436777 -32.999601 35.509593 -4.573188 10.809934 66.380799 -29.908012 29.548747 25.917436 -18.540866 10.281103 -0.000000 0.000003 -0.000002 5.945868 -6.875892 81.685340 8.620181 -6.745006 103.956558 2.650646 -5.464860 51.723827 -0.000001 -0.000003 -0.000001 5.945866 -6.875889 81.685333 8.620171 -6.745009 103.956579 2.650638 -5.464860 51.723814 0.000002 0.000002 0.000000 5.945856 -6.875901 81.685347 8.620186 -6.745032 103.956558 2.650658 -5.464865 51.723810 -0.000002 -0.000003 -0.000000 5.945865 -6.875899 81.685354 8.620174 -6.745014 103.956545 2.650642 -5.464867 51.723817 -0.000002 -0.000002 0.000002 -29.267217 25.629580 14.402094 26.075313 8.569478 10.325217 -0.224364 0.611415 -12.297903 -0.000064 0.000003 0.000003 -0.000000 -0.000001 -0.000000 -20.220767 -16.966629 -10.121318 30.375231 -0.967330 -7.147349 -12.219623 -1.706602 10.695218 -0.000029 -0.000002 0.000001 -0.000000 0.000002 0.000000 
-0.498959 111.677025 0.354746 1.364082 -27.084654 1.313028 3.649801 -1.993652 0.528253 1.363088 -0.820717 0.173819 0.000000 0.000000 0.000000 1.366617 -0.813805 0.178804 -1.882820 4.550444 2.481604 17.052713 24.883300 -12.703478 0.000001 0.000000 -0.000000 -0.308282 3.435130 4.918956 0.000000 0.000000 0.000000 -51.567512 -1.700391 -52.299349 -0.000435 -84.588430 -0.000464 -12.294679 -17.380820 -7.430962 27.590968 19.106281 -21.055340 27.859565 42.153018 14.703695 8.091819 17.848662 9.739459 0.000001 -0.000001 -0.000001 6.438745 6.867041 -86.304611 7.312879 6.867695 -93.605297 2.157740 5.009662 -46.582959 -0.000001 -0.000001 -0.000000 6.436812 6.866915 -86.288403 7.314806 6.867585 -93.621505 2.157738 5.009660 -46.582945 0.000000 -0.000001 -0.000000 6.438745 6.867030 -86.304624 7.312872 6.867706 -93.605291 2.157741 5.009663 -46.582956 -0.000000 0.000000 -0.000000 10.514970 7.128941 -86.291039 7.312033 2.781440 -93.595291 2.157740 5.009667 -46.582962 -0.000000 -0.000001 0.000001 -1.127375 -10.685152 8.203406 0.000000 0.000000 0.000000 -61.032747 65.576865 77.592643 0.000361 81.763307 -0.000308 -15.337694 16.323423 -32.921737 35.509593 -4.573189 10.809936 66.380799 -29.908015 29.548740 25.917436 -18.540856 10.281100 0.000001 -0.000001 0.000003 5.945867 -6.875893 81.685340 8.620179 -6.745010 103.956558 2.650647 -5.464865 51.723824 -0.000001 -0.000003 0.000001 5.945866 -6.875891 81.685333 8.620167 -6.745009 103.956579 2.650641 -5.464860 51.723817 0.000001 -0.000000 0.000002 5.945854 -6.875904 81.685347 8.620183 -6.745032 103.956558 2.650653 -5.464861 51.723814 -0.000001 0.000004 -0.000001 5.945862 -6.875901 81.685354 8.620178 -6.745018 103.956545 2.650645 -5.464862 51.723820 -0.000002 -0.000002 0.000002 -29.288172 25.668339 14.419784 26.077387 8.523697 10.326598 -0.224620 0.610479 -12.282171 -0.000064 0.000005 0.000003 0.000000 0.000001 0.000000 -20.213257 -16.964260 -10.105133 30.364870 -0.988676 -7.157861 -12.213017 -1.707340 10.704774 -0.000029 -0.000005 0.000001 0.000000 0.000000 -0.000000 
-0.499881 111.678650 0.352955 1.364445 -27.078406 1.306161 3.643222 -1.993570 0.529089 1.361890 -0.820747 0.173847 0.000000 0.000000 0.000000 1.365414 -0.813851 0.178832 -1.873934 4.545139 2.494240 17.054407 24.886838 -12.705631 0.000002 0.000000 -0.000000 -0.307941 3.431331 4.918805 0.000000 0.000000 0.000000 -51.600843 -1.706251 -52.314823 0.000787 -84.572406 0.000808 -12.351128 -17.378785 -7.461643 27.590959 19.106281 -21.055334 27.859558 42.153025 14.703695 8.091819 17.848659 9.739456 0.000002 0.000001 -0.000002 6.438746 6.867036 -86.304604 7.312882 6.867694 -93.605291 2.157743 5.009659 -46.582956 -0.000001 0.000001 0.000000 6.436813 6.866915 -86.288396 7.314805 6.867584 -93.621505 2.157739 5.009662 -46.582939 -0.000000 0.000000 0.000000 6.438743 6.867030 -86.304617 7.312872 6.867704 -93.605291 2.157739 5.009665 -46.582962 0.000000 0.000000 -0.000000 10.514968 7.128940 -86.291039 7.312032 2.781440 -93.595291 2.157739 5.009666 -46.582966 -0.000000 -0.000000 0.000000 -1.125350 -10.703794 8.253321 0.000000 0.000000 0.000000 -60.997988 65.595901 77.553574 -0.000276 81.773197 0.000255 -15.257903 16.188489 -32.872102 35.509593 -4.573185 10.809936 66.380805 -29.908015 29.548747 25.917435 -18.540861 10.281102 -0.000000 0.000001 -0.000003 5.945867 -6.875889 81.685340 8.620184 -6.745007 103.956558 2.650649 -5.464863 51.723824 0.000000 0.000000 0.000001 5.945866 -6.875888 81.685333 8.620171 -6.745009 103.956579 2.650640 -5.464860 51.723817 -0.000000 0.000003 0.000000 5.945852 -6.875899 81.685347 8.620180 -6.745031 103.956558 2.650651 -5.464867 51.723817 -0.000000 -0.000002 -0.000001 5.945862 -6.875899 81.685347 8.620177 -6.745009 103.956545 2.650644 -5.464869 51.723820 0.000001 -0.000002 0.000001 -29.304862 25.695872 14.435504 26.079259 8.488215 10.327126 -0.224630 0.609756 -12.270898 -0.000064 0.000004 0.000003 0.000000 0.000000 0.000000 -20.203872 -16.956634 -10.092506 30.356301 -1.014362 -7.159288 -12.208918 -1.708170 10.711767 -0.000029 -0.000003 0.000001 0.000000 0.000000 -0.000000 
-0.500591 111.680290 0.350827 1.364816 -27.072529 1.297874 3.636593 -1.990117 0.530223 1.359633 -0.820064 0.173906 0.000000 0.000000 0.000000 1.363164 -0.813145 0.178892 -1.864814 4.541546 2.505154 17.054352 24.890953 -12.708790 -0.000000 0.000000 -0.000000 -0.306418 3.435022 4.888567 0.000000 0.000000 0.000000 -51.635851 -1.710349 -52.332790 0.000292 -84.553883 0.000224 -12.412327 -17.397694 -7.494341 27.590962 19.106281 -21.055332 27.859558 42.153018 14.703686 8.091820 17.848659 9.739464 0.000001 -0.000000 -0.000002 6.438746 6.867039 -86.304604 7.312885 6.867696 -93.605297 2.157740 5.009662 -46.582956 -0.000001 -0.000001 0.000000 6.436812 6.866914 -86.288396 7.314804 6.867585 -93.621505 2.157741 5.009659 -46.582939 0.000000 -0.000000 0.000001 6.438747 6.867030 -86.304617 7.312872 6.867703 -93.605291 2.157740 5.009662 -46.582959 0.000000 0.000000 -0.000000 10.514970 7.128940 -86.291039 7.312032 2.781439 -93.595284 2.157741 5.009664 -46.582966 0.000000 -0.000001 0.000001 -1.123386 -10.721030 8.300137 0.000000 0.000000 0.000000 -60.963270 65.619847 77.514383 0.000282 81.780689 -0.000289 -15.193575 16.057433 -32.834475 35.509593 -4.573187 10.809936 66.380799 -29.908015 29.548747 25.917443 -18.540863 10.281103 -0.000000 0.000002 -0.000001 5.945865 -6.875897 81.685340 8.620177 -6.745003 103.956558 2.650648 -5.464867 51.723824 0.000000 0.000001 0.000001 5.945866 -6.875894 81.685333 8.620165 -6.745006 103.956579 2.650638 -5.464860 51.723814 -0.000001 0.000001 0.000001 5.945851 -6.875907 81.685347 8.620181 -6.745030 103.956558 2.650653 -5.464858 51.723817 -0.000002 -0.000001 -0.000000 5.945859 -6.875901 81.685347 8.620182 -6.745012 103.956552 2.650641 -5.464860 51.723827 -0.000002 0.000004 0.000000 -29.327255 25.735190 14.456787 26.083015 8.439590 10.327681 -0.225921 0.608876 -12.255736 -0.000064 0.000004 0.000003 0.000000 0.000000 0.000000 -20.192172 -16.941437 -10.079762 30.346913 -1.043130 -7.154489 -12.204588 -1.708241 10.717632 -0.000029 -0.000005 0.000001 -0.000000 0.000000 0.000000 
